<?xml version="1.0" standalone="no"?>
<!DOCTYPE svg PUBLIC "-//W3C//DTD SVG 20010904//EN"
 "http://www.w3.org/TR/2001/REC-SVG-20010904/DTD/svg10.dtd">
<svg version="1.0" xmlns="http://www.w3.org/2000/svg"
 width="857.000000pt" height="857.000000pt" viewBox="0 0 857.000000 857.000000"
 preserveAspectRatio="xMidYMid meet">
<metadata>
Created by potrace 1.11, written by Peter Selinger 2001-2013
</metadata>
<g transform="translate(0.000000,857.000000) scale(0.100000,-0.100000)"
fill="#000000" stroke="none">
<path d="M6615 8323 c-97 -11 -309 -59 -397 -89 -195 -68 -398 -181 -553 -307
-83 -67 -238 -231 -301 -317 -226 -309 -348 -679 -347 -1055 0 -88 12 -265 18
-275 2 -3 6 -24 9 -46 4 -23 11 -56 16 -75 16 -54 12 -67 -10 -31 -28 46 -118
132 -183 175 -174 115 -600 288 -847 342 -121 27 -220 46 -280 55 -41 6 -86
13 -100 15 -147 25 -636 25 -782 0 -13 -2 -43 -7 -68 -10 -164 -19 -409 -78
-605 -145 -671 -230 -1275 -705 -1666 -1310 -102 -158 -185 -313 -252 -470
-60 -143 -138 -363 -151 -430 -3 -14 -12 -50 -20 -80 -16 -56 -44 -190 -51
-245 -3 -16 -7 -47 -11 -68 -38 -231 -40 -674 -5 -912 96 -644 354 -1210 771
-1690 163 -188 397 -398 585 -526 44 -30 81 -57 83 -61 2 -5 8 -8 13 -8 4 0
39 -20 76 -44 243 -156 662 -329 948 -390 312 -67 440 -81 750 -81 192 1 379
10 395 20 3 2 32 6 65 10 218 23 609 134 831 236 l69 32 640 2 c352 0 656 5
675 9 89 21 191 99 230 176 43 86 43 86 43 760 l0 645 44 105 c101 241 190
563 218 789 4 30 9 63 11 75 18 94 25 497 11 665 -11 124 -33 270 -62 401 -33
151 -50 213 -97 353 -47 142 -94 238 -160 323 l-47 62 52 -20 c84 -33 229 -73
297 -83 144 -21 191 -26 290 -28 176 -4 313 12 489 59 420 111 790 378 1030
744 145 220 249 506 280 770 8 72 7 378 -2 430 -3 14 -8 43 -11 65 -44 278
-177 576 -360 809 -91 116 -232 253 -336 326 -19 13 -37 27 -40 30 -19 22
-205 127 -310 173 -113 51 -303 107 -415 123 -27 3 -59 9 -70 11 -24 6 -358
11 -400 6z"/>
</g>
</svg>
